<?xml version="1.0" encoding="UTF-8" standalone="no"?> <!-- Created with Vectornator for iOS (http://vectornator.io/) --><!DOCTYPE svg PUBLIC "-//W3C//DTD SVG 1.1//EN" "http://www.w3.org/Graphics/SVG/1.1/DTD/svg11.dtd">
<svg style="fill-rule:evenodd;clip-rule:evenodd;stroke-linecap:round;stroke-linejoin:round;" xmlns:vectornator="http://vectornator.io" xmlns:xlink="http://www.w3.org/1999/xlink" xmlns="http://www.w3.org/2000/svg" xml:space="preserve" version="1.1" viewBox="0 0 24 24">
<metadata>
<vectornator:setting key="RulersVisible" value="1"/>
<vectornator:setting key="Units" value="Points"/>
<vectornator:setting key="DynamicGuides" value="1"/>
<vectornator:setting key="GuidesVisible" value="1"/>
<vectornator:setting key="CMYKEnabledKey" value="0"/>
<vectornator:setting key="SnapToGuides" value="1"/>
<vectornator:setting key="GridSpacing" value="36"/>
</metadata>
<defs/>
<g id="Untitled" vectornator:layerName="Untitled">
<path d="M8+8C8+5.79086+9.79086+4+12+4C14.2091+4+16+5.79086+16+8C16+10.2091+14.2091+12+12+12C9.79086+12+8+10.2091+8+8Z" fill-rule="evenodd" fill="#929392" opacity="1"/>
<path d="M20+19L20+20C20+20.5523+19.5523+21+19+21L5+21C4.44772+21+4+20.5523+4+20L4+19C4+15.6863+6.68629+13+10+13L14+13C17.3137+13+20+15.6863+20+19Z" fill-rule="evenodd" fill="#929392" opacity="1"/>
</g>
</svg>
