<?xml version="1.0" encoding="UTF-8" standalone="no"?> <!-- Created with Vectornator for iOS (http://vectornator.io/) --><!DOCTYPE svg PUBLIC "-//W3C//DTD SVG 1.1//EN" "http://www.w3.org/Graphics/SVG/1.1/DTD/svg11.dtd">
<svg style="fill-rule:evenodd;clip-rule:evenodd;stroke-linecap:round;stroke-linejoin:round;" xmlns:vectornator="http://vectornator.io" xmlns:xlink="http://www.w3.org/1999/xlink" xmlns="http://www.w3.org/2000/svg" xml:space="preserve" version="1.1" viewBox="0 0 20 20">
<metadata>
<vectornator:setting key="DynamicGuides" value="1"/>
<vectornator:setting key="Units" value="Pixels"/>
<vectornator:setting key="GuidesVisible" value="1"/>
<vectornator:setting key="RulersVisible" value="1"/>
<vectornator:setting key="SnapToGuides" value="1"/>
<vectornator:setting key="GridSpacing" value="36"/>
</metadata>
<defs/>
<g id="Page-1" vectornator:layerName="Page-1">
<path d="M20+7.244L12.809+6.627L10+0L7.191+6.627L0+7.244L5.455+11.971L3.82+19L10+15.272L16.18+18.999L14.545+11.97L20+7.244L20+7.244ZM10+13.396L10+4.095L11.71+8.131L16.09+8.507L12.768+11.385L13.764+15.666L10+13.396L10+13.396Z" opacity="1" fill="#000000"/>
</g>
<g id="Page-1 copy" vectornator:layerName="Page-1 copy">
<path d="M10+0L7.191+6.627L0+7.244L5.455+11.971L3.82+19L10+15.272M10+4.095L11.71+8.131M10+13.396L10+13.396L10+4.095M13.764+15.666L10+13.396M12.768+11.385L13.764+15.666M16.09+8.507L12.768+11.385" opacity="1" fill="#ffc700"/>
<path d="M30+35.773L36.18+39.5L34.545+32.471L40+27.744L32.809+27.127L30+20.5L27.191+27.127L20+27.744L25.455+32.471L23.82+39.5L30+35.773Z" fill-rule="evenodd" fill="#ffd200" opacity="1"/>
<path d="M30+35.773L36.18+39.5L34.545+32.471L40+27.744L32.809+27.127L30+20.5L27.191+27.127L20+27.744L25.455+32.471L23.82+39.5L30+35.773Z" fill-rule="evenodd" fill="#ffd200" opacity="1"/>
<path d="M30+35.773L36.18+39.5L34.545+32.471L40+27.744L32.809+27.127L30+20.5L27.191+27.127L20+27.744L25.455+32.471L23.82+39.5L30+35.773Z" fill-rule="evenodd" fill="#ffd200" opacity="1"/>
<path d="M30+35.773L36.18+39.5L34.545+32.471L40+27.744L32.809+27.127L30+20.5L27.191+27.127L20+27.744L25.455+32.471L23.82+39.5L30+35.773Z" fill-rule="evenodd" fill="#727950" opacity="1"/>
<path d="M30+35.773L36.18+39.5L34.545+32.471L40+27.744L32.809+27.127L30+20.5L27.191+27.127L20+27.744L25.455+32.471L23.82+39.5L30+35.773Z" fill-rule="evenodd" fill="#645924" opacity="1"/>
<path d="M30+35.773L36.18+39.5L34.545+32.471L40+27.744L32.809+27.127L30+20.5L27.191+27.127L20+27.744L25.455+32.471L23.82+39.5L30+35.773Z" fill-rule="evenodd" fill="#ffd200" opacity="1"/>
</g>
</svg>
