<?xml version="1.0" encoding="UTF-8" standalone="no"?> <!-- Created with Vectornator for iOS (http://vectornator.io/) --><!DOCTYPE svg PUBLIC "-//W3C//DTD SVG 1.1//EN" "http://www.w3.org/Graphics/SVG/1.1/DTD/svg11.dtd">
<svg style="fill-rule:evenodd;clip-rule:evenodd;stroke-linecap:round;stroke-linejoin:round;" xmlns:vectornator="http://vectornator.io" xmlns:xlink="http://www.w3.org/1999/xlink" xmlns="http://www.w3.org/2000/svg" xml:space="preserve" version="1.1" viewBox="0 0 60.452 93.1497">
<metadata>
<vectornator:setting key="DynamicGuides" value="1"/>
<vectornator:setting key="Units" value="Points"/>
<vectornator:setting key="GuidesVisible" value="1"/>
<vectornator:setting key="RulersVisible" value="1"/>
<vectornator:setting key="SnapToGuides" value="1"/>
<vectornator:setting key="GridSpacing" value="36"/>
</metadata>
<defs>
<radialGradient cx="201.56" r="145.437" id="RadialGradient" gradientUnits="userSpaceOnUse" gradientTransform="matrix(1 0 0 1 -57.56 -5.63369)" cy="138.604">
<stop stop-color="#f1c400" offset="0"/>
<stop stop-color="#f28138" offset="1"/>
</radialGradient>
</defs>
<g id="Calque 7" vectornator:layerName="Calque 7" visibility="hidden">
<path stroke="#6e4848" fill-rule="evenodd" stroke-opacity="0" stroke-width="1" d="M-1.4369+0L174.564+0L289.437+0L289.437+265.941L-1.4369+265.941L-1.4369+0Z" fill="url(#RadialGradient)" stroke-linecap="round" opacity="0" stroke-linejoin="round"/>
</g>
<g id="Calque 6" vectornator:layerName="Calque 6" visibility="hidden">
<path stroke="#6e4848" fill-rule="evenodd" stroke-opacity="0" stroke-width="1" d="M81.551+57.7454L190.38+57.7454C213.434+57.7454+232.122+81.5039+232.122+110.811L232.122+110.811C232.122+140.119+213.434+163.878+190.38+163.878L81.551+163.878C70.195+163.878+52.055+176.602+44.529+167.249C36.7769+157.614+39.809+125.682+39.809+110.811L39.809+110.811C39.809+81.5039+58.498+57.7454+81.551+57.7454Z" fill="#d961d8" stroke-linecap="round" opacity="0" stroke-linejoin="round"/>
<path stroke="#6e4848" fill-rule="evenodd" stroke-opacity="0" stroke-width="1" d="M46.799+172.13L46.799+172.13C46.799+157.928+56.871+146.415+69.296+146.415L209.625+146.415C222.05+146.415+232.122+157.928+232.122+172.13" fill="#da81da" stroke-linecap="round" opacity="0" stroke-linejoin="round"/>
<path stroke="#6e4848" fill-rule="evenodd" stroke-opacity="0" stroke-width="1" d="M38.9188+110.438L38.9188+110.438C46.571+110.438+52.774+116.641+52.774+124.293L52.774+217.669C52.774+225.321+46.571+231.525+38.9188+231.525L38.9188+231.525C31.2667+231.525+25.0634+225.321+25.0634+217.669L25.0634+124.293C25.0634+116.641+31.2667+110.438+38.9188+110.438Z" fill="#d693d6" stroke-linecap="round" opacity="0" stroke-linejoin="round"/>
<path stroke="#6e4848" fill-rule="evenodd" stroke-opacity="0" stroke-width="1" d="M231.779+227.6L38.9188+227.6L38.9188+169.483L236.12+169.483L236.12+216.344" fill="#d693d6" stroke-linecap="round" opacity="0" stroke-linejoin="round"/>
<path stroke="#6e4848" fill-rule="evenodd" stroke-opacity="0" stroke-width="1" d="M232.122+216.344L232.122+227.6L227.781+227.6" fill="#d693d6" stroke-linecap="round" opacity="0" stroke-linejoin="round"/>
<path stroke="#6e4848" fill-rule="evenodd" stroke-opacity="0" stroke-width="1" d="M232.122+110.138L232.122+110.138C239.774+110.138+245.978+116.341+245.978+123.994L245.978+217.37C245.978+225.022+239.774+231.225+232.122+231.225L232.122+231.225C224.47+231.225+218.267+225.022+218.267+217.37L218.267+123.994C218.267+116.341+224.47+110.138+232.122+110.138Z" fill="#d693d6" stroke-linecap="round" opacity="0" stroke-linejoin="round"/>
</g>
<g id="Calque 1" vectornator:layerName="Calque 1" visibility="hidden">
<path d="M142.755+104.147L213.705+104.147L213.705+146.73L207.327+154.361L142.755+146.73L136.378+111.778L142.755+104.147Z" fill-rule="evenodd" fill="#926558" opacity="0"/>
<path d="M162.6+200.419L162.6+200.419C166.469+200.419+169.605+203.555+169.605+207.424L169.605+227.858C169.605+231.727+166.469+234.863+162.6+234.863L162.6+234.863C158.731+234.863+155.594+231.727+155.594+227.858L155.594+207.424C155.594+203.555+158.731+200.419+162.6+200.419Z" fill-rule="evenodd" fill="#744233" opacity="0"/>
<path d="M223.539+234.401C222.691+234.698+221.757+234.863+220.776+234.863L220.776+234.863C216.907+234.863+213.77+232.302+213.77+229.143L213.77+212.457C213.77+209.298+216.907+206.737+220.776+206.737L220.776+206.737C224.645+206.737+227.781+209.298+227.781+212.457L227.781+229.143C227.781+231.501+226.034+233.525+223.539+234.401" fill-rule="evenodd" fill="#744233" opacity="0"/>
<path d="M159.48+206.46L159.48+206.46C163.349+206.46+166.486+209.597+166.486+213.466L166.486+233.899C166.486+237.768+163.349+240.904+159.48+240.904L159.48+240.904C155.611+240.904+152.475+237.768+152.475+233.899L152.475+213.466C152.475+209.597+155.611+206.46+159.48+206.46Z" fill-rule="evenodd" fill="#8c4e3c" opacity="0"/>
<path d="M218.267+206.46L218.267+206.46C222.136+206.46+225.272+209.597+225.272+213.466L225.272+233.899C225.272+237.768+222.136+240.904+218.267+240.904L218.267+240.904C214.398+240.904+211.261+237.768+211.261+233.899L211.261+213.466C211.261+209.597+214.398+206.46+218.267+206.46Z" fill-rule="evenodd" fill="#8c4e3c" opacity="0"/>
<path d="M227.51+198.044C233.494+200.193+237.032+202.85+237.032+205.726L237.032+207.194C237.032+214.342+215.19+220.136+188.246+220.136L188.246+220.136C161.303+220.136+139.461+214.342+139.461+207.194L139.461+205.726C139.461+198.579+161.303+192.784+188.246+192.784L188.246+192.784C204.347+192.784+218.625+194.853+227.51+198.044" fill-rule="evenodd" fill="#a9604a" opacity="0"/>
<path d="M136.378+111.778L207.327+111.778L207.327+154.361L136.378+154.361L136.378+111.778Z" fill-rule="evenodd" fill="#b07766" opacity="0"/>
<path stroke="#6e4848" fill-rule="evenodd" stroke-width="1" d="M188.965+151.459L191.33+151.459C195.19+151.459+198.319+155.914+198.319+161.41L198.319+161.41C198.319+166.905+195.19+171.36+191.33+171.36L188.965+171.36C185.105+171.36+181.976+166.905+181.976+161.41L181.976+161.41C181.976+155.914+185.105+151.459+188.965+151.459Z" fill="#ffffff" stroke-linecap="round" fill-opacity="0" opacity="0" stroke-linejoin="round"/>
<path d="M169.41+163.878L211.261+163.878L211.261+206.46L169.41+206.46L169.41+163.878Z" fill-rule="evenodd" fill="#b07766" opacity="0"/>
</g>
<g id="Calque 2" vectornator:layerName="Calque 2">
<path stroke="#fac753" fill-rule="evenodd" stroke-opacity="0" stroke-width="1" d="M10.8257+84.1929L24.5544+82.3228L39.3084+82.4876L51.9281+84.6115C56.2962+84.6115+60.452+90.8839+60.452+97.4217L3.2019+97.1014C3.2019+90.5635+6.45767+84.1929+10.8257+84.1929Z" fill="#000000" stroke-linecap="round" opacity="1" stroke-linejoin="round"/>
<path stroke="#fac753" fill-rule="evenodd" stroke-opacity="0" stroke-width="1" d="M15.5927+19.1654C15.5927+10.0943+22.7623+2.74065+31.6064+2.74065C40.4505+2.74065+47.6201+10.0943+47.6201+19.1654C47.6201+28.2366+40.4505+35.5902+31.6064+35.5902C22.7623+35.5902+15.5927+28.2366+15.5927+19.1654Z" fill="#000000" stroke-linecap="round" opacity="1" stroke-linejoin="round"/>
<path stroke="#fac753" fill-rule="evenodd" stroke-width="1" d="M13.3134+50.4886C19.9084+50.4886+26.1564+49.7566+32.7224+49.2268C33.3994+49.1722+33.9214+49.231+34.5634+49.0689C38.1494+48.1629+44.0484+49.0689+48.1024+49.0689" fill="#090905" stroke-linecap="round" fill-opacity="0" opacity="1" stroke-linejoin="round"/>
<path stroke="#fac753" fill-rule="evenodd" stroke-opacity="0" stroke-width="1" d="M31.9314+70.8979L31.9314+70.8979C36.0054+70.8979+39.3084+74.2005+39.3084+78.2745L39.3084+82.2508C39.3084+86.3248+36.0054+89.6275+31.9314+89.6275L31.9314+89.6275C27.8574+89.6275+24.5544+86.3248+24.5544+82.2508L24.5544+78.2745C24.5544+74.2005+27.8574+70.8979+31.9314+70.8979Z" fill="#9d533d" stroke-linecap="round" opacity="1" stroke-linejoin="round"/>
<path stroke="#fac753" fill-rule="evenodd" stroke-opacity="0" stroke-width="1" d="M10.2067+39.3464C10.2067+27.1803+19.5463+17.3177+31.0674+17.3177C42.5884+17.3177+51.9281+27.1803+51.9281+39.3464C51.9281+51.5125+42.5884+61.3751+31.0674+61.3751C19.5463+61.3751+10.2067+51.5125+10.2067+39.3464Z" fill="#000000" stroke-linecap="round" opacity="1" stroke-linejoin="round"/>
<path stroke="#fac753" stroke-opacity="0" stroke-width="1" d="M11.0364+58.2373L25.0882+70.8979" fill="none" stroke-linecap="round" opacity="1" stroke-linejoin="round"/>
</g>
<g id="Calque 1 copy" vectornator:layerName="Calque 1 copy">
<path stroke="#6e4848" fill-rule="evenodd" stroke-width="1" d="M24.5544+28.6035C21.9499+34.9747+28.5792+22.1554+31.4399+33.9465C34.3006+45.7376+51.1074+33.1427+51.1074+44.0048L51.1074+60.9683C51.1074+66.4622+47.9004+69.9588+44.2684+73.5272C40.7194+77.014+36.8084+80.6359+31.4404+80.6359L31.4404+80.6359C25.9154+80.6359+21.9104+77.246+18.3374+73.5784C14.8854+70.0348+11.7724+66.306+11.7724+60.9683L11.7724+44.0048C11.7724+33.1427+25.674+25.8648+24.5544+28.6035Z" fill="#9d533d" stroke-linecap="round" opacity="1" stroke-linejoin="round"/>
<path stroke="#fac753" fill-rule="evenodd" stroke-opacity="0" stroke-width="1" d="M25.6994+67.7717C26.5184+68.6766+27.5754+69.4533+28.4864+70.2786C33.0524+74.4152+35.2714+69.3569+37.5134+67.0791" fill="#a31e1e" stroke-linecap="round" opacity="1" stroke-linejoin="round"/>
<path stroke="#fac753" fill-rule="evenodd" stroke-opacity="0" stroke-width="1" d="M79.348+234.273L79.348+234.273C73.961+236.741+84.735+231.805+79.348+234.273" fill="#934a35" stroke-linecap="round" opacity="1" stroke-linejoin="round"/>
<path stroke="#fac753" fill-rule="evenodd" stroke-opacity="0" stroke-width="1" d="M8.59558+42.7494L8.59558+42.7494C9.82727+42.7494+10.8257+43.7478+10.8257+44.9795L10.8257+59.1449C10.8257+60.3766+9.82727+61.3751+8.59558+61.3751L8.59558+61.3751C7.36389+61.3751+6.36542+60.3766+6.36542+59.1449L6.36542+44.9795C6.36542+43.7478+7.36389+42.7494+8.59558+42.7494Z" fill="#737373" stroke-linecap="round" opacity="1" stroke-linejoin="round"/>
<path stroke="#fac753" fill-rule="evenodd" stroke-opacity="0" stroke-width="1" d="M54.1583+42.7494L54.1583+42.7494C55.3899+42.7494+56.3884+43.7478+56.3884+44.9795L56.3884+59.1449C56.3884+60.3766+55.3899+61.3751+54.1583+61.3751L54.1583+61.3751C52.9266+61.3751+51.9281+60.3766+51.9281+59.1449L51.9281+44.9795C51.9281+43.7478+52.9266+42.7494+54.1583+42.7494Z" fill="#737373" stroke-linecap="round" opacity="1" stroke-linejoin="round"/>
<path stroke="#fac753" stroke-width="1" d="M25.0882+17.3177L37.5134+17.3177" fill="none" stroke-linecap="round" opacity="1" stroke-linejoin="round"/>
</g>
<g id="Calque 4" vectornator:layerName="Calque 4">
<path stroke="#000000" stroke-width="1" d="M9.22692+61.3751L19.2852+69.4667" fill="none" stroke-linecap="round" opacity="1" stroke-linejoin="round"/>
<path stroke="#000000" fill-rule="evenodd" stroke-width="1" d="M17.1219+69.4667C17.1219+68.1481+18.2131+67.0791+19.5592+67.0791C20.9052+67.0791+21.9964+68.1481+21.9964+69.4667C21.9964+70.7854+20.9052+71.8543+19.5592+71.8543C18.2131+71.8543+17.1219+70.7854+17.1219+69.4667Z" fill="#0f0e0e" stroke-linecap="round" opacity="1" stroke-linejoin="round"/>
<path stroke="#fac753" fill-rule="evenodd" stroke-opacity="0" stroke-width="1" d="M21.8605+19.586L30.8664+19.6662L40.0021+19.7475" fill="#edff39" stroke-linecap="round" opacity="1" stroke-linejoin="round"/>
<path stroke="#000000" stroke-width="1" d="M15.5927+52.0623C15.5927+52.0623+18.1715+48.1484+21.2124+48.1484C24.2533+48.1484+27.7564+52.0623+27.7564+52.0623" fill="none" stroke-linecap="round" opacity="1" stroke-linejoin="round"/>
<path stroke="#000000" stroke-width="1" d="M47.6201+52.0623C47.6201+52.0623+45.0413+48.1485+42.0003+48.1485C38.9594+48.1485+35.4564+52.0623+35.4564+52.0623" fill="none" stroke-linecap="round" opacity="1" stroke-linejoin="round"/>
</g>
<g id="Calque 3" vectornator:layerName="Calque 3" visibility="hidden">
<path stroke="#6e4848" fill-rule="evenodd" stroke-opacity="0" stroke-width="1" d="M77.64+24.2034L77.64+24.2034C81.502+24.2034+84.633+27.3341+84.633+31.1961L84.633+32.8246C84.633+36.6866+81.502+39.8173+77.64+39.8173L77.64+39.8173C73.778+39.8173+70.648+36.6866+70.648+32.8246L70.648+31.1961C70.648+27.3341+73.778+24.2034+77.64+24.2034Z" fill="#090605" stroke-linecap="round" opacity="0" stroke-linejoin="round"/>
<path stroke="#6e4848" fill-rule="evenodd" stroke-opacity="0" stroke-width="1" d="M71.094+32.5496L71.094+32.5496C74.956+32.5496+78.087+35.6803+78.087+39.5422L78.087+41.1708C78.087+45.0327+74.956+48.1634+71.094+48.1634L71.094+48.1634C67.232+48.1634+64.102+45.0327+64.102+41.1708L64.102+39.5422C64.102+35.6803+67.232+32.5496+71.094+32.5496Z" fill="#090605" stroke-linecap="round" opacity="0" stroke-linejoin="round"/>
<path stroke="#6e4848" fill-rule="evenodd" stroke-opacity="0" stroke-width="1" d="M70.715+19.1029L70.715+19.1029C74.577+19.1029+77.708+22.2336+77.708+26.0955L77.708+27.7241C77.708+31.586+74.577+34.7167+70.715+34.7167L70.715+34.7167C66.853+34.7167+63.723+31.586+63.723+27.7241L63.723+26.0955C63.723+22.2336+66.853+19.1029+70.715+19.1029Z" fill="#090605" stroke-linecap="round" opacity="0" stroke-linejoin="round"/>
<path stroke="#6e4848" fill-rule="evenodd" stroke-opacity="0" stroke-width="1" d="M62.276+37.7591L62.276+37.7591C66.138+37.7591+69.269+40.8898+69.269+44.7517L69.269+46.3803C69.269+50.2422+66.138+53.3729+62.276+53.3729L62.276+53.3729C58.414+53.3729+55.283+50.2422+55.283+46.3803L55.283+44.7517C55.283+40.8898+58.414+37.7591+62.276+37.7591Z" fill="#090605" stroke-linecap="round" opacity="0" stroke-linejoin="round"/>
<path stroke="#6e4848" fill-rule="evenodd" stroke-opacity="0" stroke-width="1" d="M53.792+41.9752L53.792+41.9752C57.654+41.9752+60.784+45.1059+60.784+48.9678L60.784+50.5964C60.784+54.4583+57.654+57.589+53.792+57.589L53.792+57.589C49.93+57.589+46.799+54.4583+46.799+50.5964L46.799+48.9678C46.799+45.1059+49.93+41.9752+53.792+41.9752Z" fill="#090605" stroke-linecap="round" opacity="0" stroke-linejoin="round"/>
<path stroke="#6e4848" fill-rule="evenodd" stroke-opacity="0" stroke-width="1" d="M55.769+33.2437L55.769+33.2437C59.631+33.2437+62.762+36.3744+62.762+40.2364L62.762+41.8649C62.762+45.7268+59.631+48.8576+55.769+48.8576L55.769+48.8576C51.907+48.8576+48.776+45.7268+48.776+41.8649L48.776+40.2364C48.776+36.3744+51.907+33.2437+55.769+33.2437Z" fill="#090605" stroke-linecap="round" opacity="0" stroke-linejoin="round"/>
<path stroke="#6e4848" fill-rule="evenodd" stroke-opacity="0" stroke-width="1" d="M61.588+20.7595L61.588+20.7595C65.45+20.7595+68.581+23.8902+68.581+27.7521L68.581+29.3807C68.581+33.2426+65.45+36.3733+61.588+36.3733L61.588+36.3733C57.726+36.3733+54.595+33.2426+54.595+29.3807L54.595+27.7521C54.595+23.8902+57.726+20.7595+61.588+20.7595Z" fill="#090605" stroke-linecap="round" opacity="0" stroke-linejoin="round"/>
<path stroke="#6e4848" fill-rule="evenodd" stroke-opacity="0" stroke-width="1" d="M80.768+15.0311L80.768+15.0311C84.63+15.0311+87.761+18.1618+87.761+22.0237L87.761+23.6523C87.761+27.5142+84.63+30.6449+80.768+30.6449L80.768+30.6449C76.906+30.6449+73.775+27.5142+73.775+23.6523L73.775+22.0237C73.775+18.1618+76.906+15.0311+80.768+15.0311Z" fill="#090605" stroke-linecap="round" opacity="0" stroke-linejoin="round"/>
<path stroke="#6e4848" fill-rule="evenodd" stroke-opacity="0" stroke-width="1" d="M93.66+17.1046L93.66+17.1046C97.522+17.1046+100.652+20.2353+100.652+24.0973L100.652+25.7258C100.652+29.5878+97.522+32.7185+93.66+32.7185L93.66+32.7185C89.798+32.7185+86.667+29.5878+86.667+25.7258L86.667+24.0973C86.667+20.2353+89.798+17.1046+93.66+17.1046Z" fill="#090605" stroke-linecap="round" opacity="0" stroke-linejoin="round"/>
<path stroke="#6e4848" fill-rule="evenodd" stroke-opacity="0" stroke-width="1" d="M104.288+22.3102L104.288+22.3102C108.15+22.3102+111.28+25.4409+111.28+29.3028L111.28+30.9314C111.28+34.7933+108.15+37.924+104.288+37.924L104.288+37.924C100.426+37.924+97.295+34.7933+97.295+30.9314L97.295+29.3028C97.295+25.4409+100.426+22.3102+104.288+22.3102Z" fill="#090605" stroke-linecap="round" opacity="0" stroke-linejoin="round"/>
<path stroke="#6e4848" fill-rule="evenodd" stroke-opacity="0" stroke-width="1" d="M117.543+24.31L117.543+24.31C121.405+24.31+124.536+27.4407+124.536+31.3026L124.536+32.9312C124.536+36.7931+121.405+39.9238+117.543+39.9238L117.543+39.9238C113.681+39.9238+110.55+36.7931+110.55+32.9312L110.55+31.3026C110.55+27.4407+113.681+24.31+117.543+24.31Z" fill="#090605" stroke-linecap="round" opacity="0" stroke-linejoin="round"/>
<path stroke="#6e4848" fill-rule="evenodd" stroke-opacity="0" stroke-width="1" d="M113.81+42.7374L113.81+42.7374C117.672+42.7374+120.803+45.8681+120.803+49.7301L120.803+51.3586C120.803+55.2205+117.672+58.3513+113.81+58.3513L113.81+58.3513C109.948+58.3513+106.817+55.2205+106.817+51.3586L106.817+49.7301C106.817+45.8681+109.948+42.7374+113.81+42.7374Z" fill="#090605" stroke-linecap="round" opacity="0" stroke-linejoin="round"/>
<path stroke="#6e4848" fill-rule="evenodd" stroke-opacity="0" stroke-width="1" d="M115.372+55.2587L115.372+55.2587C119.234+55.2587+122.364+58.3894+122.364+62.2513L122.364+63.8799C122.364+67.7418+119.234+70.8725+115.372+70.8725L115.372+70.8725C111.51+70.8725+108.379+67.7418+108.379+63.8799L108.379+62.2513C108.379+58.3894+111.51+55.2587+115.372+55.2587Z" fill="#090605" stroke-linecap="round" opacity="0" stroke-linejoin="round"/>
<path stroke="#6e4848" fill-rule="evenodd" stroke-opacity="0" stroke-width="1" d="M98.737+13.4165L98.737+13.4165C102.599+13.4165+105.73+16.5472+105.73+20.4092L105.73+22.0377C105.73+25.8997+102.599+29.0304+98.737+29.0304L98.737+29.0304C94.875+29.0304+91.744+25.8997+91.744+22.0377L91.744+20.4092C91.744+16.5472+94.875+13.4165+98.737+13.4165Z" fill="#090605" stroke-linecap="round" opacity="0" stroke-linejoin="round"/>
<path stroke="#6e4848" fill-rule="evenodd" stroke-opacity="0" stroke-width="1" d="M107.744+17.0465L107.744+17.0465C111.606+17.0465+114.737+20.1772+114.737+24.0391L114.737+25.6677C114.737+29.5296+111.606+32.6603+107.744+32.6603L107.744+32.6603C103.882+32.6603+100.752+29.5296+100.752+25.6677L100.752+24.0391C100.752+20.1772+103.882+17.0465+107.744+17.0465Z" fill="#090605" stroke-linecap="round" opacity="0" stroke-linejoin="round"/>
<path stroke="#6e4848" fill-rule="evenodd" stroke-opacity="0" stroke-width="1" d="M120.965+32.3848L120.965+32.3848C124.827+32.3848+127.958+35.5155+127.958+39.3774L127.958+41.006C127.958+44.8679+124.827+47.9986+120.965+47.9986L120.965+47.9986C117.103+47.9986+113.972+44.8679+113.972+41.006L113.972+39.3774C113.972+35.5155+117.103+32.3848+120.965+32.3848Z" fill="#090605" stroke-linecap="round" opacity="0" stroke-linejoin="round"/>
<path stroke="#6e4848" fill-rule="evenodd" stroke-opacity="0" stroke-width="1" d="M124.325+44.5696L124.325+44.5696C128.187+44.5696+131.318+47.7004+131.318+51.5623L131.318+53.1909C131.318+57.0528+128.187+60.1835+124.325+60.1835L124.325+60.1835C120.463+60.1835+117.332+57.0528+117.332+53.1909L117.332+51.5623C117.332+47.7004+120.463+44.5696+124.325+44.5696Z" fill="#090605" stroke-linecap="round" opacity="0" stroke-linejoin="round"/>
<path stroke="#6e4848" fill-rule="evenodd" stroke-opacity="0" stroke-width="1" d="M126.257+56.2831L126.257+56.2831C130.119+56.2831+133.25+59.4139+133.25+63.2758L133.25+64.9043C133.25+68.7663+130.119+71.897+126.257+71.897L126.257+71.897C122.395+71.897+119.264+68.7663+119.264+64.9043L119.264+63.2758C119.264+59.4139+122.395+56.2831+126.257+56.2831Z" fill="#090605" stroke-linecap="round" opacity="0" stroke-linejoin="round"/>
</g>
</svg>
