<?xml version="1.0" encoding="UTF-8" standalone="no"?> <!-- Created with Vectornator for iOS (http://vectornator.io/) --><!DOCTYPE svg PUBLIC "-//W3C//DTD SVG 1.1//EN" "http://www.w3.org/Graphics/SVG/1.1/DTD/svg11.dtd">
<svg style="fill-rule:evenodd;clip-rule:evenodd;stroke-linecap:round;stroke-linejoin:round;" xmlns:vectornator="http://vectornator.io" xmlns:xlink="http://www.w3.org/1999/xlink" xmlns="http://www.w3.org/2000/svg" xml:space="preserve" version="1.1" viewBox="0 0 24 24">
<metadata>
<vectornator:setting key="DynamicGuides" value="1"/>
<vectornator:setting key="Units" value="Points"/>
<vectornator:setting key="GuidesVisible" value="1"/>
<vectornator:setting key="RulersVisible" value="1"/>
<vectornator:setting key="SnapToGuides" value="1"/>
<vectornator:setting key="GridSpacing" value="36"/>
</metadata>
<defs/>
<g id="Untitled" vectornator:layerName="Untitled">
<path d="M19.7+9.95L18.2+7.82606C18.1415+7.74266+18.072+7.67041+18+7.60134L18+5.0625C18+4.476+17.552+4+17+4L7+4C6.4475+4+6+4.476+6+5.0625L6+7.60188C5.928+7.67041+5.8585+7.74213+5.8+7.825L4.3005+9.94947C4.1065+10.2236+4+10.5631+4+10.9063L4+11.4375C4+12.3162+4.673+13.0313+5.5+13.0313L5.5+13.0313L5.5+19.9375C5.5+20.524+5.948+21+6.5+21L17.5+21C18.052+21+18.5+20.524+18.5+19.9375L18.5+13.0313L18.5+13.0313C19.327+13.0313+20+12.3162+20+11.4375L20+10.9063C20+10.5631+19.8935+10.2236+19.7+9.95ZM17+7.1875L17+7.1875L15.2065+7.1875L15.2065+7.1875L15.2065+7.1875L17+7.1875ZM9.0084+11.9688L7.40859+11.9688L8.944+8.25L9.6897+8.25L9.0084+11.9688ZM10.6799+8.25L11.3644+8.25L11.3644+11.9688L10.0757+11.9688L10.6799+8.25ZM12.25+8.25L13.1414+8.25L13.9282+11.9688L12.4978+11.9688L12.25+8.25ZM13.9025+8.25L14.9387+8.25L16.8322+11.9688L14.8492+11.9688L13.9025+8.25ZM5+11.4375L5+10.9063C5+10.791+5.03061+10.6794+5.08745+10.5875L6.39923+8.4625C6.48187+8.32863+6.6113+8.25+6.74903+8.25L7.9961+8.25L6.24707+11.9688L5.43726+11.9688C5.19589+11.9688+5+11.7313+5+11.4375ZM13.941+20.1473L10.0811+20.1473L10.0811+15.0566L13.941+15.0566L13.941+20.1473ZM17.5+19.6065L17.5+19.6065L17.5+14.5486C17.5+14.2689+17.5+14.0428+17.5+14.0428L17.5+14.0428C17.5+14.0428+17.5+14.2689+17.5+14.5486L17.5+19.6065L17.5+19.6065L17.5+13.0313L17.5+13.0313L17.5+19.6065ZM19+11.4375C19+11.7313+18.8166+11.9688+18.5897+11.9688L17.829+11.9688L15.8796+8.25L17.3588+8.25L17.3588+8.25C17.4876+8.25+17.6095+8.32863+17.6867+8.4625L18.9175+10.5875C18.9713+10.6794+19+10.791+19+10.9063L19+11.4375Z" fill-rule="evenodd" fill="#929392" opacity="1"/>
</g>
</svg>
