<?xml version="1.0" encoding="UTF-8" standalone="no"?> <!-- Created with Vectornator for iOS (http://vectornator.io/) --><!DOCTYPE svg PUBLIC "-//W3C//DTD SVG 1.1//EN" "http://www.w3.org/Graphics/SVG/1.1/DTD/svg11.dtd">
<svg style="fill-rule:evenodd;clip-rule:evenodd;stroke-linecap:round;stroke-linejoin:round;" xmlns:vectornator="http://vectornator.io" xmlns:xlink="http://www.w3.org/1999/xlink" xmlns="http://www.w3.org/2000/svg" xml:space="preserve" version="1.1" viewBox="0 0 32 32">
<metadata>
<vectornator:setting key="RulersVisible" value="1"/>
<vectornator:setting key="Units" value="Points"/>
<vectornator:setting key="DynamicGuides" value="1"/>
<vectornator:setting key="GuidesVisible" value="1"/>
<vectornator:setting key="CMYKEnabledKey" value="0"/>
<vectornator:setting key="SnapToGuides" value="1"/>
<vectornator:setting key="GridSpacing" value="36"/>
</metadata>
<defs/>
<g id="Untitled" vectornator:layerName="Untitled">
<path d="M31.4+11.2L28.4+7.202C28.283+7.045+28.144+6.909+28+6.779L28+2C28+0.896+27.104+1.77636e-15+26+1.77636e-15L6+1.77636e-15C4.895+1.77636e-15+4+0.896+4+2L4+6.78C3.856+6.909+3.717+7.044+3.6+7.2L0.601+11.199C0.213+11.715+0+12.354+0+13L0+14C0+15.654+1.346+17+3+17L3+17L3+30C3+31.104+3.896+32+5+32L27+32C28.104+32+29+31.104+29+30L29+17L29+17C30.654+17+32+15.654+32+14L32+13C32+12.354+31.787+11.715+31.4+11.2ZM26+2L26+6L6+6L6+6L6+2L26+2ZM10.0168+15L6.81718+15L9.88799+8L11.3794+8L10.0168+15ZM13.3597+8L14.7288+8L14.7288+15L12.1513+15L13.3597+8ZM16.5+8L18.2828+8L19.8564+15L16.9956+15L16.5+8ZM19.805+8L21.8774+8L25.6644+15L21.6985+15L19.805+8ZM2+14L2+13C2+12.783+2.06122+12.573+2.1749+12.4L4.79846+8.4C4.96374+8.148+5.2226+8+5.49807+8L7.9922+8L4.49413+15L2.87452+15C2.39178+15+2+14.553+2+14ZM18.7095+29.2428L13.6936+29.2428L13.6936+20.8124L18.7095+20.8124L18.7095+29.2428ZM27+29.377L21+29.377L21+19.8562C21+19.3297+20.551+18.9041+20+18.9041L12.5+18.9041C11.948+18.9041+11.5+19.3297+11.5+19.8562L11.5+29.377L5+29.377L5+17L27+17L27+29.377ZM30+14C30+14.553+29.6332+15+29.1794+15L27.658+15L23.7592+8L26.7177+8L26.7177+8C26.9753+8+27.219+8.148+27.3733+8.4L29.8351+12.4C29.9426+12.573+30+12.783+30+13L30+14Z" fill-rule="evenodd" fill="#929392" opacity="1"/>
</g>
</svg>
